<?xml version="1.0" encoding="utf-8"?>
<!-- Generator: Adobe Illustrator 28.0.0, SVG Export Plug-In . SVG Version: 6.00 Build 0)  -->
<svg version="1.1" id="Layer_1" xmlns="http://www.w3.org/2000/svg" xmlns:xlink="http://www.w3.org/1999/xlink" x="0px" y="0px"
	 viewBox="0 0 1214.47 272" style="enable-background:new 0 0 1214.47 272;" xml:space="preserve">
<style type="text/css">
	.st0{fill:#FFFFFF;}
	.st1{fill:#1B3F72;}
	.st2{fill:#FAA21B;}
</style>
<g>
	<g>
		<polygon class="st0" points="327.67,96.25 277.6,96.25 277.6,51.44 255.85,51.44 255.85,159.97 277.6,159.97 277.6,113.46 
			327.67,113.46 327.67,159.97 349.13,159.97 349.13,51.44 327.67,51.44 		"/>
		<path class="st0" d="M495.63,64.65c-5.22-5.19-11.4-9.2-18.53-12.03c-7.13-2.83-14.88-4.25-23.26-4.25
			c-8.48,0-16.28,1.44-23.41,4.33c-7.13,2.89-13.33,6.93-18.6,12.11c-5.27,5.19-9.36,11.29-12.25,18.29
			c-2.9,7.01-4.34,14.68-4.34,23.02c0,8.23,1.45,15.85,4.34,22.86c2.89,7.01,6.98,13.13,12.25,18.37c5.27,5.24,11.5,9.3,18.68,12.19
			c7.18,2.89,14.96,4.33,23.33,4.33c8.37,0,16.12-1.42,23.26-4.25c7.13-2.83,13.31-6.87,18.53-12.11
			c5.22-5.24,9.27-11.36,12.17-18.37c2.89-7,4.34-14.68,4.34-23.02c0-8.34-1.45-16.04-4.34-23.1
			C504.9,75.96,500.84,69.84,495.63,64.65z M487.66,124.11c-1.79,5.48-4.3,10.26-7.52,14.36c-3.23,4.1-7.04,7.25-11.45,9.47
			c-4.41,2.21-9.2,3.32-14.37,3.32c-5.17,0-9.98-1.13-14.42-3.39c-4.44-2.26-8.29-5.43-11.54-9.53c-3.26-4.1-5.78-8.88-7.57-14.36
			c-1.79-5.47-2.68-11.43-2.68-17.87c0-6.52,0.89-12.52,2.68-17.99c1.79-5.47,4.31-10.24,7.57-14.29c3.26-4.05,7.09-7.21,11.5-9.47
			c4.41-2.26,9.23-3.39,14.47-3.39c5.17,0,9.96,1.11,14.37,3.32c4.41,2.22,8.22,5.35,11.45,9.4c3.22,4.05,5.73,8.84,7.52,14.36
			c1.79,5.52,2.68,11.53,2.68,18.06C490.34,112.64,489.45,118.64,487.66,124.11z"/>
		<path class="st0" d="M629.16,58.09c-8.03-4.5-17.25-6.74-27.64-6.74h-42.76v108.52h42.76c10.4,0,19.61-2.25,27.64-6.74
			c8.03-4.5,14.28-10.83,18.73-18.99c4.46-8.16,6.69-17.67,6.69-28.52c0-10.85-2.23-20.36-6.69-28.53
			C643.44,68.92,637.19,62.58,629.16,58.09z M628.94,125.14c-3.02,5.58-7.2,9.92-12.53,13.02c-5.34,3.1-11.68,4.65-19.01,4.65
			h-17.41V68.4h17.41c7.33,0,13.67,1.55,19.01,4.65c5.34,3.1,9.51,7.39,12.53,12.87c3.02,5.48,4.53,12.04,4.53,19.69
			C633.47,113.05,631.96,119.56,628.94,125.14z"/>
		<polygon class="st0" points="722.15,111.74 773.02,111.74 773.02,96.66 722.15,96.66 722.15,66.55 779.68,66.55 779.68,51.42 
			700.46,51.42 700.46,159.95 781.86,159.95 781.86,144.79 722.15,144.79 		"/>
		<polygon class="st0" points="903.53,144.74 848.21,144.74 848.21,51.39 826.63,51.39 826.63,159.91 903.53,159.91 		"/>
		<path class="st0" d="M1015.54,56.11c-6.75-3.05-14.85-4.57-24.29-4.57H947.4v108.52h21.58c0-0.03,0.08-31.32,0.08-31.32h22.2
			c9.44,0,17.53-1.58,24.29-4.73c6.75-3.15,11.95-7.6,15.61-13.33c3.65-5.73,5.48-12.58,5.48-20.54c0-8.06-1.83-14.98-5.48-20.78
			C1027.49,63.58,1022.29,59.16,1015.54,56.11z M1005.84,108.2c-4.41,3.77-10.99,5.66-19.72,5.66h-17.51c0-0.28,0-46.97,0-46.97
			h17.51c8.73,0,15.3,1.89,19.72,5.66c4.41,3.77,6.62,10.78,6.62,17.6S1010.25,104.42,1005.84,108.2z"/>
		<path class="st0" d="M1081.65,134.04h55.81l11.68,25.87h23.47l-48.88-108.43c-0.01,0.01-19.78-0.09-19.78-0.09l-49.07,108.52h15.1
			L1081.65,134.04z M1109.55,72.21l21.12,46.8h-42.25L1109.55,72.21z"/>
		<polygon class="st0" points="280.2,217.67 264.23,217.67 264.23,203.76 256.02,203.76 256.02,239.03 264.23,239.03 264.23,224.57 
			280.2,224.57 280.2,239.03 288.36,239.03 288.36,203.76 280.2,203.76 		"/>
		<path class="st0" d="M384.58,208.3c-1.75-1.65-3.79-2.91-6.12-3.8c-2.33-0.89-4.89-1.34-7.68-1.34s-5.35,0.45-7.68,1.36
			c-2.34,0.91-4.38,2.18-6.12,3.83c-1.75,1.65-3.1,3.57-4.06,5.77c-0.96,2.2-1.44,4.63-1.44,7.28c0,2.62,0.48,5.04,1.44,7.25
			c0.96,2.22,2.31,4.15,4.06,5.79c1.74,1.65,3.79,2.92,6.14,3.83c2.35,0.91,4.92,1.36,7.71,1.36c2.75,0,5.3-0.45,7.63-1.34
			c2.33-0.89,4.37-2.16,6.12-3.8c1.74-1.65,3.1-3.58,4.05-5.82c0.96-2.23,1.44-4.66,1.44-7.28c0-2.65-0.48-5.09-1.44-7.3
			C387.68,211.87,386.33,209.94,384.58,208.3z M380.98,225.95c-0.55,1.36-1.34,2.55-2.34,3.58c-1.01,1.02-2.18,1.81-3.5,2.37
			c-1.33,0.55-2.78,0.83-4.36,0.83s-3.04-0.28-4.38-0.83c-1.34-0.55-2.51-1.34-3.5-2.37c-0.99-1.02-1.76-2.22-2.32-3.58
			c-0.55-1.36-0.83-2.88-0.83-4.56c0-1.68,0.28-3.2,0.83-4.56c0.55-1.36,1.33-2.55,2.32-3.58c0.99-1.02,2.16-1.81,3.5-2.37
			c1.34-0.55,2.8-0.83,4.38-0.83s3.03,0.28,4.36,0.83c1.33,0.55,2.49,1.34,3.5,2.37c1.01,1.02,1.79,2.22,2.34,3.58
			c0.55,1.36,0.83,2.88,0.83,4.56C381.81,223.07,381.53,224.59,380.98,225.95z"/>
		<path class="st0" d="M475.66,221.22c-1.21-0.72-2.54-1.32-3.98-1.79c-1.45-0.47-2.91-0.86-4.38-1.18
			c-1.48-0.32-2.82-0.64-4.03-0.96c-1.21-0.32-2.18-0.76-2.92-1.33c-0.74-0.57-1.11-1.33-1.11-2.27c0-0.74,0.23-1.41,0.68-2.02
			c0.45-0.6,1.17-1.08,2.14-1.44c0.97-0.35,2.27-0.53,3.88-0.53c1.55,0,3.16,0.23,4.84,0.68c1.68,0.45,3.31,1.13,4.89,2.04
			l2.57-6.15c-1.61-1.01-3.5-1.78-5.67-2.32c-2.17-0.54-4.36-0.81-6.57-0.81c-3.33,0-6.09,0.5-8.29,1.49
			c-2.2,0.99-3.84,2.32-4.91,3.98c-1.08,1.66-1.61,3.5-1.61,5.52c0,1.85,0.36,3.38,1.08,4.61c0.72,1.23,1.69,2.22,2.92,2.97
			c1.23,0.76,2.57,1.36,4.03,1.81c1.46,0.45,2.91,0.84,4.36,1.16c1.44,0.32,2.78,0.65,4,1.01c1.23,0.35,2.21,0.81,2.95,1.36
			c0.74,0.55,1.11,1.3,1.11,2.24c0,0.74-0.24,1.39-0.71,1.94c-0.47,0.55-1.2,1-2.19,1.34c-0.99,0.34-2.29,0.5-3.9,0.5
			c-2.12,0-4.22-0.34-6.3-1.03c-2.08-0.69-3.86-1.57-5.34-2.64l-2.77,6.15c1.58,1.21,3.67,2.19,6.27,2.95
			c2.6,0.76,5.31,1.13,8.14,1.13c3.33,0,6.1-0.5,8.31-1.51c2.22-1.01,3.87-2.33,4.96-3.98c1.09-1.64,1.64-3.46,1.64-5.44
			c0-1.81-0.38-3.33-1.13-4.56C477.85,222.91,476.87,221.94,475.66,221.22z"/>
		<path class="st0" d="M565.68,205.3c-2.28-1.02-5-1.54-8.16-1.54h-15.26v35.26h8.21v-9.72h7.05c3.16,0,5.88-0.52,8.16-1.56
			c2.28-1.04,4.05-2.51,5.29-4.41c1.24-1.9,1.86-4.17,1.86-6.83c0-2.62-0.62-4.89-1.86-6.8
			C569.72,207.79,567.96,206.32,565.68,205.3z M562.71,221.04c-1.28,1.08-3.16,1.61-5.64,1.61h-6.6v-12.24h6.6
			c2.48,0,4.36,0.53,5.64,1.59c1.28,1.06,1.91,2.56,1.91,4.51C564.62,218.46,563.98,219.97,562.71,221.04z"/>
		<rect x="636.05" y="203.76" class="st0" width="8.21" height="35.26"/>
		<polygon class="st0" points="705.57,210.41 716.85,210.41 716.85,239.03 725.01,239.03 725.01,210.41 736.3,210.41 736.3,203.76 
			705.57,203.76 		"/>
		<path class="st0" d="M808.69,203.76l-15.67,35.26h8.36l3.14-7.56h16.33l3.14,7.56h8.56l-15.82-35.26H808.69z M807.1,225.27
			l5.59-13.44l5.59,13.44H807.1z"/>
		<polygon class="st0" points="901.43,203.76 893.21,203.76 893.21,239.03 919.01,239.03 919.01,232.38 901.43,232.38 		"/>
		<rect x="980.67" y="203.76" class="st0" width="8.21" height="35.26"/>
		<polygon class="st0" points="1050.18,210.41 1061.47,210.41 1061.47,239.03 1069.63,239.03 1069.63,210.41 1080.91,210.41 
			1080.91,203.76 1050.18,203.76 		"/>
		<polygon class="st0" points="1172.85,203.76 1164.89,203.76 1155.45,219.38 1146.05,203.76 1137.33,203.76 1151.03,226.46 
			1151.03,239.03 1159.25,239.03 1159.25,226.44 		"/>
	</g>
	<circle class="st0" cx="114.04" cy="144" r="95.89"/>
	<path class="st1" d="M87.62,135.85l-0.1-26.39c-0.05-12.75-10.42-23.05-23.18-23h0l0.1,26.39C64.49,125.6,74.87,135.9,87.62,135.85
		L87.62,135.85z"/>
	<path class="st1" d="M163.3,86.09L163.3,86.09c-12.75,0.05-23.05,10.43-23,23.18l0.1,26.39h0c12.75-0.05,23.05-10.43,23-23.18
		L163.3,86.09z"/>
	<path class="st1" d="M140.45,149.67l0.11,28.86c0.05,12.75,10.43,23.05,23.18,23h0l-0.11-28.86
		C163.58,159.92,153.2,149.62,140.45,149.67L140.45,149.67z"/>
	<path class="st1" d="M64.78,201.91L64.78,201.91c12.75-0.05,23.05-10.42,23-23.18l-0.11-28.86h0c-12.75,0.05-23.05,10.42-23,23.18
		L64.78,201.91z"/>
	<circle class="st2" cx="114.08" cy="142.76" r="11.22"/>
</g>
</svg>
